<?xml version="1.0" encoding="UTF-8" standalone="no"?><!DOCTYPE svg PUBLIC "-//W3C//DTD SVG 1.1//EN" "http://www.w3.org/Graphics/SVG/1.1/DTD/svg11.dtd"><svg width="100%" height="100%" viewBox="0 0 1038 1452" version="1.1" xmlns="http://www.w3.org/2000/svg" xmlns:xlink="http://www.w3.org/1999/xlink" xml:space="preserve" xmlns:serif="http://www.serif.com/" style="fill-rule:evenodd;clip-rule:evenodd;stroke-linejoin:round;stroke-miterlimit:2;"><path d="M104.355,990.734c-21.246,-21.244 -31.869,-49.247 -31.869,-84.009c0,-3.863 0.483,-6.76 1.449,-8.691c0.966,-1.931 1.448,-4.828 1.448,-8.691c3.863,-19.312 10.624,-38.625 20.281,-57.937c9.657,-19.313 21.246,-35.729 34.766,-49.247c11.589,-15.451 24.144,-31.866 37.664,-49.248c13.52,-17.381 27.04,-33.796 40.561,-49.247c13.52,-13.518 25.591,-27.52 36.215,-42.004c10.623,-14.485 23.66,-28.486 39.112,-42.005c3.863,-3.863 7.243,-9.174 10.14,-15.933c2.897,-6.759 8.209,-14.002 15.934,-21.727c1.932,0 -4.345,-5.311 -18.831,-15.932c-14.486,-10.622 -30.904,-22.21 -49.253,-34.763c-18.349,-12.553 -35.732,-24.141 -52.149,-34.763c-16.418,-10.622 -25.592,-15.933 -27.524,-15.933c-15.451,-9.656 -30.903,-18.829 -46.355,-27.52c-15.452,-8.691 -29.937,-18.83 -43.458,-30.417c-11.589,-9.656 -24.143,-21.727 -37.663,-36.211c-13.521,-14.485 -22.212,-29.452 -26.075,-44.902c-5.795,-11.587 -8.692,-26.072 -8.692,-43.453c0,-25.107 3.863,-44.419 11.589,-57.938c3.863,-7.725 11.106,-14.484 21.729,-20.278c10.623,-5.794 16.9,-8.691 18.832,-8.691c17.383,-5.793 33.801,-8.69 49.252,-8.69c9.658,-0 18.832,1.448 27.524,4.345c8.691,2.897 17.866,6.277 27.523,10.139c9.657,5.794 17.866,12.553 24.626,20.278c6.76,7.725 14.969,13.519 24.626,17.382c5.795,5.793 12.555,11.587 20.281,17.381c7.726,5.794 15.451,10.622 23.177,14.484c11.589,9.657 23.178,17.864 34.767,24.624c11.588,6.759 22.212,14.967 31.869,24.623l-0,-20.278c-0,-21.244 -0.966,-41.522 -2.897,-60.834c-1.932,-19.313 -2.898,-39.591 -2.898,-60.835c0,-17.381 0.966,-34.763 2.898,-52.144c1.931,-17.381 5.794,-33.797 11.588,-49.247c5.795,-11.587 14.004,-23.658 24.627,-36.211c10.623,-12.553 22.694,-21.727 36.215,-27.52c7.725,-5.794 18.349,-8.691 31.869,-8.691c3.863,-0 7.726,0.483 11.589,1.448c3.863,0.966 7.725,1.449 11.588,1.449l34.767,8.691c15.451,5.793 27.04,11.587 34.766,17.381c7.726,5.794 14.486,16.416 20.281,31.866c5.794,11.587 8.691,26.072 8.691,43.453l0,17.381c-3.863,19.313 -7.726,37.66 -11.589,55.041c-3.863,17.381 -5.794,35.728 -5.794,55.041l-0,115.875c5.794,0 12.554,-5.311 20.28,-15.933c7.726,-10.622 11.589,-17.864 11.589,-21.726c9.657,-9.657 16.418,-20.761 20.28,-33.315c3.863,-12.553 8.692,-23.658 14.486,-33.314c17.384,-28.969 40.078,-55.523 68.085,-79.664c28.006,-24.141 60.358,-36.211 97.056,-36.211c15.451,-0 33.8,2.897 55.047,8.691c7.725,3.862 14.968,7.242 21.728,10.139c6.761,2.896 14.004,7.242 21.729,13.036l11.589,11.587c9.658,9.656 14.486,18.347 14.486,26.072c-15.451,30.9 -32.835,58.903 -52.149,84.01c-19.315,25.106 -41.527,51.178 -66.636,78.216c-23.177,25.106 -43.941,52.626 -62.29,82.561c-18.349,29.934 -39.112,58.42 -62.289,85.458l34.766,28.969c9.657,7.725 17.866,14.484 24.626,20.278c6.76,5.794 11.106,9.656 13.038,11.587l37.663,34.763c36.698,30.9 74.844,58.42 114.439,82.561c39.596,24.141 73.879,55.524 102.851,94.149c21.246,17.381 37.664,39.591 49.252,66.628c3.863,5.794 8.692,14.002 14.486,24.624c5.795,10.622 9.658,21.726 11.589,33.314c0,11.587 -2.897,25.106 -8.691,40.556c-5.795,15.45 -13.521,28.003 -23.178,37.66c-21.246,21.243 -49.252,31.865 -84.019,31.865c-17.383,0 -34.283,-5.311 -50.701,-15.932c-16.417,-10.622 -32.352,-20.761 -47.803,-30.418c-15.452,-9.656 -31.87,-19.795 -49.253,-30.417c-17.383,-10.622 -33.801,-22.692 -49.252,-36.211c-15.452,-11.588 -29.455,-24.141 -42.01,-37.66c-12.554,-13.518 -26.557,-28.003 -42.009,-43.453c-11.589,-11.587 -25.109,-23.175 -40.561,-34.762c-15.451,-11.588 -30.903,-20.279 -46.355,-26.072c-1.931,-1.932 -4.829,-2.897 -8.691,-2.897c-9.658,-0 -14.004,6.759 -13.038,20.278c0.966,13.519 0.483,28.969 -1.448,46.35c-1.932,9.656 -2.898,17.864 -2.898,24.624l0,24.623c0,17.381 0.483,35.246 1.449,53.592c0.966,18.347 2.414,36.211 4.346,53.593c3.863,38.625 6.76,77.25 8.691,115.875c1.932,38.625 4.829,77.25 8.692,115.875c1.931,13.519 3.38,26.555 4.346,39.108c0.965,12.554 1.448,25.59 1.448,39.108c0,9.657 -0.483,18.347 -1.448,26.072c-0.966,7.725 -2.415,16.416 -4.346,26.072c-7.726,30.9 -28.006,56.972 -60.841,78.216c-17.383,7.725 -32.835,11.588 -46.355,11.588c-27.041,-0 -50.219,-11.588 -69.533,-34.763c-19.315,-21.244 -34.284,-45.385 -44.907,-72.422c-10.623,-27.038 -17.866,-54.075 -21.729,-81.113c0,-3.862 -0.483,-8.208 -1.448,-13.036c-0.966,-4.828 -1.449,-9.173 -1.449,-13.036c0,-5.794 1.932,-18.347 5.794,-37.659l0,-234.648c0,-11.587 -0.965,-19.312 -2.897,-23.175l-20.28,23.175l-14.486,17.381l-5.794,8.691c-7.726,9.656 -14.004,18.347 -18.832,26.072c-4.829,7.725 -12.072,15.45 -21.729,23.175c-15.452,11.588 -28.007,17.381 -37.664,17.381c-15.452,0 -33.8,-10.621 -55.047,-31.865l-28.972,-34.763Z" style="fill:#ff7a6b;fill-rule:nonzero;"/></svg>