<?xml version="1.0" encoding="UTF-8" standalone="no"?><!DOCTYPE svg PUBLIC "-//W3C//DTD SVG 1.1//EN" "http://www.w3.org/Graphics/SVG/1.1/DTD/svg11.dtd"><svg width="100%" height="100%" viewBox="0 0 872 658" version="1.1" xmlns="http://www.w3.org/2000/svg" xmlns:xlink="http://www.w3.org/1999/xlink" xml:space="preserve" xmlns:serif="http://www.serif.com/" style="fill-rule:evenodd;clip-rule:evenodd;stroke-linejoin:round;stroke-miterlimit:2;"><path d="M869.089,295.709c-4.757,-19.485 -15.584,-37.593 -29.917,-51.56c-13.844,-13.479 -30.823,-22.933 -49.421,-27.251c10.008,-30.595 6.591,-64.778 -9.522,-92.973c-18.469,-32.324 -52.783,-51.784 -89.604,-54.264c-13.84,-0.932 -27.771,0.742 -40.952,4.867c0.169,-12.742 -6.151,-25.695 -15.302,-34.831c-17.435,-17.423 -42.391,-19.041 -65.026,-11.941c-11.159,3.505 -21.707,8.653 -31.961,14.278c-17.848,-22.115 -43.86,-37.062 -72.148,-41.005c-30.024,-4.193 -59.709,4.61 -83.509,23.146c-10.857,8.454 -20.104,18.909 -27.043,30.768c-23.777,-11.485 -51.47,-14.271 -77.13,-7.741c-26.643,6.772 -49.573,24.07 -64.583,46.929c-7.102,10.818 -12.308,23.001 -15.166,35.65c-50.148,1.582 -103.012,4.93 -145.71,33.913c-19.101,12.966 -35.461,30.375 -44.52,51.797c-8.327,19.696 -9.928,42.323 -4.111,62.945c2.989,10.598 7.993,20.404 14.841,29.007c6.587,8.281 15.155,14.042 23.761,20.009c3.766,2.614 7.48,5.275 10.778,8.474c2.969,2.875 5.14,5.532 5.801,9.08c0.007,0.032 0.012,0.057 0.016,0.082c0.039,0.467 0.043,0.962 0.021,1.431c-0.023,0.418 -0.073,1.173 -0.391,2.267c-0.381,1.318 -1.381,2.945 -2.274,3.893c-2.805,2.968 -6.589,4.987 -10.564,6.982c-8.883,4.467 -17.837,8.197 -25.085,15.246c-6.703,6.519 -11.439,14.886 -14.217,23.769c-5.833,18.652 -2.835,39.253 5.115,56.787c19.982,44.074 73.16,55.632 116.834,58.606c1.513,0.105 3.028,0.198 4.543,0.284c-9.494,31.494 4.806,67.278 30.866,87.205c33.817,25.854 79.94,26.155 119.356,15.142c21.598,-6.042 42.159,-15.201 62.438,-24.719c13.043,34.112 46.918,56.565 82.307,63.401c20.872,4.039 42.114,3.172 62.536,-2.759c23.434,-6.806 44.735,-18.992 63.929,-33.872c19.888,-15.414 37.255,-33.706 53.332,-52.988c34.071,13.079 72.583,11.099 105.464,-5.094c34.2,-16.839 58.429,-49.969 66.232,-87.037c3.641,-17.332 3.927,-35.279 0.424,-52.599c36.497,-4.706 69.485,-30.112 84.081,-63.884c8.42,-19.485 10.535,-40.758 5.481,-61.44" style="fill:#e0922e;fill-rule:nonzero;"/><path d="M728.216,168.356c-0.804,-11.494 -5.042,-22.688 -13.63,-30.65c-8.525,-7.9 -19.446,-11.687 -30.807,-13.093c-20.486,-2.537 -42.21,3.997 -59.566,14.702c-15.491,9.554 -28.965,23.14 -37.721,39.199c-15.55,-6.498 -31.899,-11.286 -48.472,-14.457c-91.608,-17.53 -207.781,-5.559 -290.151,48.058c-10.889,-8.869 -22.446,-16.762 -35.611,-22.264c-16.695,-6.974 -36.07,-8.601 -53.28,-2.339c-8.402,3.061 -16.363,7.678 -22.417,14.346c-7.27,8.016 -11.273,17.778 -12.622,28.438c-2.573,20.328 5.701,41.463 17.061,57.989c6.139,8.932 13.358,17.15 21.667,24.127c0.333,0.279 0.672,0.558 1.008,0.837c-5.64,16.402 -8.354,33.819 -6.482,51.065c5.476,50.457 47.013,87.292 92.416,104.165c25.41,9.445 52.097,14.167 78.947,17.261c29.69,3.429 59.597,5.123 89.484,5.008c28.886,-0.116 57.86,-1.765 86.516,-5.5c27.329,-3.56 54.652,-9.23 80.33,-19.412c43.85,-17.377 84.553,-49.561 101.707,-94.709c8.438,-22.223 10.589,-46.123 6.13,-69.483c-3.239,-16.966 -9.385,-33.311 -17.969,-48.279c11.194,-6.389 21.317,-14.804 29.51,-24.383c14.09,-16.467 25.492,-38.375 23.952,-60.626" style="fill:#f9cb4a;fill-rule:nonzero;"/><path d="M593.109,290.572c-1.692,-28.599 -25.313,-48.619 -52.054,-46.191c-4.954,0.451 -9.851,1.422 -14.437,2.752c-11.089,3.217 -21.515,9.125 -29.774,17.209c-8.588,8.399 -14.868,19.628 -15.059,31.852c-0.179,11.694 5.401,22.757 13.247,31.151c15.45,16.543 42.068,22.936 63.263,14.712c20.608,-7.998 36.145,-28.867 34.814,-51.485" style="fill:#fff;fill-rule:nonzero;"/><path d="M358.037,262.216c-30.426,-33.74 -88.982,-4.506 -96.04,35.362c-2.278,12.876 1.49,24.853 10.287,34.466c15.262,16.669 42.019,22.646 63.077,14.637c20.938,-7.957 36.184,-28.409 36.057,-51.12c-0.069,-12.417 -5.111,-24.172 -13.381,-33.345" style="fill:#fff;fill-rule:nonzero;"/><path d="M545.405,268.85c-34.248,-11.914 -48.885,47.412 -10.769,51.675c12.718,1.423 24.631,-7.044 27.504,-19.51c3.094,-13.452 -3.368,-27.514 -16.735,-32.165" style="fill:#231f20;fill-rule:nonzero;"/><path d="M324.304,273.687c-34.253,-11.911 -48.887,47.415 -10.771,51.682c12.72,1.423 24.631,-7.051 27.502,-19.514c3.098,-13.452 -3.361,-27.514 -16.731,-32.168" style="fill:#231f20;fill-rule:nonzero;"/><path d="M327.718,287.6c-0.288,-0.449 -0.634,-0.844 -1.018,-1.18c-0.345,-0.331 -0.731,-0.599 -1.151,-0.796c-1.145,-0.597 -2.483,-0.831 -3.805,-0.652c-0.917,0.123 -1.778,0.361 -2.576,0.867c-0.876,0.551 -1.776,1.382 -2.214,2.342c-0.432,0.939 -0.672,1.794 -0.532,2.845c0.139,1.023 0.552,1.772 1.231,2.561c1.434,1.679 3.957,2.138 6.011,1.604c0.263,-0.065 0.524,-0.158 0.783,-0.267c0.895,-0.275 1.731,-0.756 2.353,-1.441c1.39,-1.541 2.14,-3.996 0.918,-5.883" style="fill:#fff;fill-rule:nonzero;"/><path d="M548.003,282.436c-0.291,-0.447 -0.634,-0.837 -1.017,-1.18c-0.348,-0.331 -0.732,-0.599 -1.152,-0.796c-1.145,-0.597 -2.483,-0.824 -3.807,-0.649c-0.913,0.12 -1.781,0.358 -2.578,0.864c-0.872,0.558 -1.772,1.382 -2.208,2.342c-0.436,0.939 -0.674,1.794 -0.536,2.845c0.141,1.028 0.552,1.772 1.234,2.561c1.431,1.679 3.954,2.138 6.005,1.604c0.268,-0.063 0.529,-0.156 0.786,-0.267c0.895,-0.273 1.733,-0.756 2.356,-1.441c1.39,-1.538 2.139,-3.995 0.917,-5.883" style="fill:#fff;fill-rule:nonzero;"/><path d="M474.982,320.562c-3.566,-14.87 -8.147,-29.502 -13.333,-43.878c-5.862,-16.256 -12.363,-32.276 -19.05,-48.208c-5.013,-11.959 -20.034,-26.636 -30.174,-9.949c-3.395,5.588 -3.775,12.268 -5.88,18.344c-3.625,10.47 -7.051,21.018 -10.574,31.525c-5.049,15.056 -10.453,30.047 -15.082,45.241c-4.436,14.562 -6.65,29.872 -0.368,44.229c5.622,12.855 18.524,20.597 31.084,25.465c12.257,4.756 26.376,7.533 39.343,4.205c13.527,-3.474 23.521,-14.428 26.446,-27.962c2.803,-12.957 0.634,-26.311 -2.412,-39.012Zm-255.485,-86.974c-4.715,-6.796 -9.949,-13.126 -17.031,-17.588c-7.232,-4.554 -15.802,-6.272 -24.211,-4.831c-17.297,2.956 -24.888,21.715 -20.858,37.386c2.385,9.282 8.231,17.194 14.603,24.145c0.872,0.953 1.962,1.604 3.146,1.992c0.479,0.704 1.04,1.325 1.671,1.813c2.912,2.249 8.068,2.498 10.612,-0.633c9.44,-11.594 19.489,-22.518 30.785,-32.347c2.551,-2.212 3.236,-7.119 1.283,-9.937Zm470.905,-58.657c-0.413,-6.836 -3.732,-13.76 -10.012,-17.048c-12.043,-6.314 -26.122,1.162 -36.372,7.778c-11.578,7.476 -21.556,17.198 -29.108,28.728c-0.816,1.243 -1.159,2.722 -1.107,4.215c-0.917,3.317 0.321,6.895 3.78,9.464c5.722,4.245 11.439,8.496 17.165,12.723c2.839,2.104 5.588,4.631 9.17,5.305c5.094,0.953 8.751,-1.389 12.515,-4.445c10.228,-8.311 20.077,-17.772 27.859,-28.449c3.802,-5.22 6.505,-11.707 6.11,-18.271Z" style="fill:#f2a34c;fill-rule:nonzero;"/><path d="M421.277,590.511c-6.453,-22.164 -8.892,-45.143 -7.021,-68.154c0.243,-2.974 -2.712,-5.518 -5.522,-5.518c-3.234,0 -5.224,2.537 -5.524,5.518c-2.394,23.859 0.062,48.25 7.385,71.099c2.16,6.743 12.685,3.937 10.682,-2.945Zm34.017,-47.861c-1.234,-5.97 -11.603,-4.74 -10.817,1.463c1.408,11.102 2.599,22.217 3.164,33.404c0.355,7.082 11.112,7.179 11.094,0c-0.023,-11.686 -1.07,-23.412 -3.441,-34.867Zm-230.593,-31.172c-10.608,15.78 -18.816,33.089 -25.117,51.002c-0.991,2.817 1.126,6.053 3.868,6.806c3.109,0.849 5.758,-1.055 6.816,-3.866c6.358,-16.898 14.565,-32.975 23.832,-48.454c3.63,-6.064 -5.526,-11.251 -9.399,-5.488Zm48.715,3.857c-3.623,11.982 -6.855,24.057 -9.967,36.172c-1.779,6.929 8.706,9.811 10.714,2.952c3.516,-12.007 6.903,-24.041 9.906,-36.192c1.705,-6.9 -8.593,-9.734 -10.653,-2.932Zm-65.096,-44.775c-20.536,17.928 -36.479,41.19 -47.502,66.003c-1.206,2.713 -0.791,5.914 1.976,7.528c2.382,1.395 6.271,0.732 7.534,-1.974c11.216,-24.052 27.037,-45.096 45.678,-63.887c4.974,-5.011 -2.462,-12.238 -7.686,-7.67Zm452.863,54.992c-2.896,-19.807 -15.123,-37.79 -31.929,-48.51c-2.501,-1.598 -6.058,-0.518 -7.512,1.967c-1.588,2.706 -0.488,5.833 1.965,7.505c14.328,9.733 23.729,25.028 26.859,41.958c0.534,2.929 4.082,4.583 6.773,3.845c3.158,-0.871 4.275,-3.816 3.844,-6.765Zm63.619,-57.62c-10.984,-12.254 -24.706,-21.547 -40.244,-27.047c-2.762,-0.982 -5.942,1.11 -6.681,3.787c-0.854,3.106 1.063,5.575 3.791,6.679c13.356,5.407 25.567,13.784 35.371,24.343c4.826,5.202 12.456,-2.521 7.763,-7.762Zm-594.662,-46.72c-1.635,-2.795 -4.838,-3.224 -7.568,-1.981c-22.469,10.194 -43.314,23.263 -62.078,39.299c-2.276,1.94 -2.001,5.826 0,7.823c2.315,2.312 5.486,1.865 7.834,0c18.431,-14.648 38.576,-27.421 59.829,-37.586c2.694,-1.288 3.403,-5.134 1.983,-7.555Zm-19.012,-37.962c-25.01,5.388 -49.421,12.603 -73.418,21.461c-2.796,1.034 -4.697,3.741 -3.859,6.79c0.756,2.746 3.959,4.819 6.796,3.851c24.111,-8.22 48.696,-15.317 73.425,-21.434c6.951,-1.718 3.998,-12.168 -2.944,-10.668Zm650.36,-14.702c-8.704,-2.299 -17.467,-4.372 -26.219,-6.498c-6.851,-1.661 -9.769,8.828 -2.914,10.559c8.729,2.212 17.444,4.479 26.214,6.516c6.866,1.593 9.781,-8.771 2.919,-10.577Zm-632.961,-56.955c-12.754,-1.749 -25.728,-2.26 -38.573,-2.986c-3.007,-0.168 -5.571,2.677 -5.571,5.565c-0,3.229 2.56,5.303 5.571,5.564c12.314,1.075 24.759,2.457 37.127,2.532c2.684,0.018 5.033,-2.079 5.346,-4.71c0.284,-2.387 -1.188,-5.593 -3.9,-5.965Zm686.679,-19.848c-32.022,-3.322 -64.657,-0.599 -95.703,7.923c-6.794,1.865 -3.932,12.292 2.91,10.545c30.312,-7.716 61.641,-10.214 92.793,-7.466c2.965,0.261 5.509,-2.718 5.509,-5.502c-0,-3.233 -2.538,-5.194 -5.509,-5.5Zm-46.17,-38.137c-15.682,0.617 -31.128,3.8 -45.746,9.515c-2.762,1.074 -4.679,3.676 -3.832,6.743c0.727,2.644 3.972,4.903 6.753,3.835c13.717,-5.275 28.142,-8.388 42.825,-9.155c6.996,-0.365 7.071,-11.21 -0,-10.938Zm-680.892,-12.824c-7.843,-0.667 -15.704,-0.998 -23.57,-1.34c-2.978,-0.13 -5.513,2.625 -5.513,5.506c0,3.154 2.53,5.307 5.513,5.511c7.852,0.533 15.702,1.075 23.57,1.277c2.962,0.075 5.483,-2.572 5.483,-5.477c0,-3.171 -2.521,-5.22 -5.483,-5.477Zm683.043,-71.958c-7.746,3.044 -15.403,6.296 -23.066,9.538c-5.677,2.398 -1.554,12.406 4.243,10.053c7.711,-3.131 15.416,-6.266 23.038,-9.595c5.624,-2.45 1.57,-12.267 -4.215,-9.996Zm-492.583,-1.341c-9.497,-11.378 -22.292,-19.539 -35.902,-25.18c-2.635,-1.091 -5.895,0.964 -6.86,3.363c-0.99,2.464 -0.286,6.023 2.381,7.249c12.158,5.606 22.714,13.37 32.478,22.461c5.343,4.971 12.459,-2.439 7.903,-7.893Zm305.446,-107.162c-3.093,-0.849 -5.733,1.05 -6.787,3.845c-9.494,25.289 -21.212,49.892 -34.173,73.584c-3.418,6.262 5.983,11.779 9.583,5.592c14.153,-24.317 25.638,-49.817 35.225,-76.249c1.018,-2.795 -1.138,-6.03 -3.848,-6.772Zm-243.81,72.063c-11.184,-21.752 -26.248,-41.67 -43.733,-58.757c-5.043,-4.932 -12.666,2.682 -7.741,7.73c16.524,16.956 30.387,35.955 41.978,56.574c3.484,6.196 12.715,0.719 9.496,-5.547Zm142.004,-57.747c-0.32,-2.974 -2.319,-5.54 -5.547,-5.54c-2.832,-0 -5.774,2.538 -5.547,5.54c1.377,18.582 0.012,37.08 -3.112,55.423c-0.499,2.92 0.775,5.913 3.839,6.755c2.83,0.778 6.035,-0.946 6.769,-3.835c4.813,-18.981 5.692,-38.908 3.598,-58.343Zm-84.599,-10.484c-2.253,-6.628 -12.785,-3.828 -10.573,2.911c6.512,19.852 8.377,41.1 5.935,61.828c-0.722,6.117 9.99,7.626 10.848,1.47c3.128,-22.409 1.082,-44.771 -6.21,-66.209Z" style="fill:#c86b2d;fill-rule:nonzero;"/><path d="M426.695,389.637c0.299,1.257 0.674,2.46 0.863,3.405c1.315,6.587 1.758,13.057 -2.267,18.736c-3.378,4.769 -8.327,8.47 -13.431,11.229c-12.927,6.974 -31.675,8.903 -43.225,-1.806c-2.787,-2.58 -5.126,-5.711 -6.56,-9.248c-1.583,-3.902 -1.333,-7.435 -1.578,-11.512c-0.334,-5.552 -7.759,-6.55 -9.595,-1.296c-1.481,4.229 -0.654,9.573 0.652,13.761c1.44,4.628 3.862,8.771 6.946,12.481c6.417,7.714 15.879,11.907 25.71,13.046c18.741,2.178 40.399,-6.9 50.266,-23.367c4.791,6.541 11.925,11.031 19.562,13.749c17.467,6.226 42.65,5.865 56.019,-8.719c6.769,-7.388 11.023,-19.063 7.071,-28.833c-1.095,-2.7 -3.607,-4.61 -6.653,-3.768c-2.68,0.733 -4.738,3.875 -3.78,6.645c2.147,6.181 1.007,12.168 -2.936,17.441c-4.471,5.983 -11.753,8.842 -18.899,10.055c-7.604,1.289 -15.938,0.742 -23.42,-1.023c-4.431,-1.046 -8.788,-2.643 -12.624,-5.112c-3.367,-2.16 -7.846,-5.831 -8.823,-9.926c-0.156,-0.649 -0.202,-1.323 -0.254,-1.996c-0.198,-2.784 0,-5.473 -0.123,-8.25c0.252,-1.766 0.724,-3.48 1.142,-5.213c2.701,-0.222 5.399,-0.637 8.087,-1.274c8.216,-1.946 16.252,-6.098 22.189,-12.156c3.203,-3.269 6.506,-7.517 7.68,-12.029c0.466,-1.8 0.697,-4.071 0.547,-6.367c-0.581,-8.78 -6.153,-10.43 -13.932,-11.948c-15.398,-3.001 -99.872,-13.161 -83.05,21.974c2.165,4.52 6.317,7.714 10.717,9.908c10.494,5.229 21.967,9.758 33.699,11.413Z" style="fill:#231f20;fill-rule:nonzero;"/></svg>