<?xml version="1.0" encoding="UTF-8" standalone="no"?><!DOCTYPE svg PUBLIC "-//W3C//DTD SVG 1.1//EN" "http://www.w3.org/Graphics/SVG/1.1/DTD/svg11.dtd"><svg width="100%" height="100%" viewBox="0 0 112 156" version="1.1" xmlns="http://www.w3.org/2000/svg" xmlns:xlink="http://www.w3.org/1999/xlink" xml:space="preserve" xmlns:serif="http://www.serif.com/" style="fill-rule:evenodd;clip-rule:evenodd;stroke-linejoin:round;stroke-miterlimit:2;"><path d="M11.412,106.405c-2.283,-2.283 -3.425,-5.293 -3.425,-9.029c-0,-0.415 0.052,-0.726 0.156,-0.934c0.103,-0.208 0.155,-0.519 0.155,-0.934c0.415,-2.076 1.142,-4.151 2.18,-6.227c1.038,-2.076 2.283,-3.84 3.736,-5.293c1.245,-1.661 2.595,-3.425 4.048,-5.293c1.453,-1.868 2.905,-3.632 4.358,-5.293c1.453,-1.453 2.751,-2.958 3.892,-4.514c1.142,-1.557 2.543,-3.062 4.204,-4.515c0.415,-0.415 0.778,-0.986 1.089,-1.713c0.312,-0.726 0.882,-1.504 1.713,-2.335c0.207,0 -0.467,-0.57 -2.024,-1.712c-1.557,-1.142 -3.321,-2.387 -5.293,-3.736c-1.972,-1.349 -3.84,-2.595 -5.604,-3.736c-1.765,-1.142 -2.751,-1.713 -2.958,-1.713c-1.661,-1.038 -3.321,-2.024 -4.982,-2.958c-1.66,-0.934 -3.217,-2.023 -4.67,-3.269c-1.245,-1.038 -2.595,-2.335 -4.048,-3.892c-1.453,-1.557 -2.387,-3.165 -2.802,-4.826c-0.622,-1.245 -0.934,-2.802 -0.934,-4.67c0,-2.698 0.415,-4.774 1.246,-6.227c0.415,-0.83 1.193,-1.557 2.335,-2.179c1.141,-0.623 1.816,-0.934 2.024,-0.934c1.868,-0.623 3.632,-0.935 5.292,-0.935c1.038,0 2.024,0.156 2.958,0.467c0.934,0.312 1.92,0.675 2.958,1.09c1.038,0.623 1.92,1.349 2.647,2.18c0.726,0.83 1.608,1.453 2.646,1.868c0.623,0.622 1.349,1.245 2.18,1.868c0.83,0.623 1.66,1.141 2.49,1.557c1.246,1.037 2.491,1.92 3.737,2.646c1.245,0.727 2.387,1.609 3.424,2.647l0,-2.18c0,-2.283 -0.103,-4.463 -0.311,-6.538c-0.207,-2.076 -0.311,-4.255 -0.311,-6.539c-0,-1.868 0.104,-3.736 0.311,-5.604c0.208,-1.868 0.623,-3.632 1.245,-5.293c0.623,-1.245 1.505,-2.543 2.647,-3.892c1.142,-1.349 2.439,-2.335 3.892,-2.958c0.83,-0.622 1.972,-0.934 3.425,-0.934c0.415,0 0.83,0.052 1.245,0.156c0.415,0.104 0.83,0.156 1.245,0.156l3.737,0.934c1.66,0.622 2.906,1.245 3.736,1.868c0.83,0.623 1.557,1.764 2.179,3.425c0.623,1.245 0.934,2.802 0.934,4.67l0,1.868c-0.415,2.076 -0.83,4.048 -1.245,5.916c-0.415,1.868 -0.623,3.84 -0.623,5.915l0,12.454c0.623,0 1.349,-0.57 2.18,-1.712c0.83,-1.142 1.245,-1.92 1.245,-2.335c1.038,-1.038 1.764,-2.231 2.18,-3.581c0.415,-1.349 0.934,-2.542 1.556,-3.58c1.868,-3.114 4.307,-5.968 7.317,-8.562c3.01,-2.595 6.487,-3.892 10.43,-3.892c1.661,-0 3.633,0.311 5.916,0.934c0.83,0.415 1.609,0.778 2.335,1.09c0.727,0.311 1.505,0.778 2.335,1.401l1.246,1.245c1.037,1.038 1.556,1.972 1.556,2.802c-1.66,3.321 -3.528,6.331 -5.604,9.029c-2.076,2.699 -4.463,5.501 -7.161,8.407c-2.491,2.698 -4.722,5.656 -6.694,8.873c-1.972,3.218 -4.203,6.279 -6.694,9.185l3.736,3.114c1.038,0.83 1.92,1.556 2.647,2.179c0.726,0.623 1.193,1.038 1.401,1.246l4.047,3.736c3.944,3.321 8.043,6.279 12.299,8.873c4.255,2.595 7.939,5.968 11.053,10.119c2.283,1.868 4.047,4.255 5.293,7.161c0.415,0.623 0.934,1.505 1.556,2.647c0.623,1.141 1.038,2.335 1.246,3.58c-0,1.246 -0.312,2.699 -0.934,4.359c-0.623,1.661 -1.453,3.01 -2.491,4.048c-2.283,2.283 -5.293,3.424 -9.029,3.424c-1.868,0 -3.685,-0.57 -5.449,-1.712c-1.764,-1.142 -3.477,-2.231 -5.137,-3.269c-1.661,-1.038 -3.425,-2.128 -5.293,-3.269c-1.868,-1.142 -3.633,-2.439 -5.293,-3.892c-1.661,-1.246 -3.166,-2.595 -4.515,-4.048c-1.349,-1.453 -2.854,-3.009 -4.514,-4.67c-1.246,-1.245 -2.699,-2.491 -4.359,-3.736c-1.661,-1.246 -3.321,-2.18 -4.982,-2.802c-0.207,-0.208 -0.519,-0.312 -0.934,-0.312c-1.038,0 -1.505,0.727 -1.401,2.18c0.104,1.453 0.052,3.113 -0.156,4.981c-0.207,1.038 -0.311,1.92 -0.311,2.647l-0,2.646c-0,1.868 0.052,3.788 0.156,5.76c0.103,1.972 0.259,3.892 0.467,5.76c0.415,4.152 0.726,8.303 0.934,12.454c0.207,4.152 0.519,8.303 0.934,12.454c0.207,1.453 0.363,2.854 0.467,4.204c0.104,1.349 0.156,2.75 0.156,4.203c-0,1.038 -0.052,1.972 -0.156,2.802c-0.104,0.83 -0.26,1.764 -0.467,2.802c-0.83,3.321 -3.01,6.123 -6.539,8.407c-1.868,0.83 -3.528,1.245 -4.981,1.245c-2.906,-0 -5.397,-1.245 -7.473,-3.736c-2.075,-2.284 -3.684,-4.878 -4.826,-7.784c-1.141,-2.906 -1.919,-5.812 -2.335,-8.718c0,-0.415 -0.052,-0.882 -0.155,-1.401c-0.104,-0.519 -0.156,-0.986 -0.156,-1.401c0,-0.623 0.208,-1.972 0.623,-4.048l-0,-25.219c-0,-1.245 -0.104,-2.076 -0.312,-2.491l-2.179,2.491l-1.557,1.868l-0.623,0.934c-0.83,1.038 -1.504,1.972 -2.023,2.802c-0.519,0.831 -1.298,1.661 -2.335,2.491c-1.661,1.246 -3.01,1.868 -4.048,1.868c-1.661,0 -3.632,-1.141 -5.916,-3.425l-3.113,-3.736Z" style="fill:#fddc59;fill-rule:nonzero;"/></svg>