<?xml version="1.0" encoding="UTF-8" standalone="no"?><!DOCTYPE svg PUBLIC "-//W3C//DTD SVG 1.1//EN" "http://www.w3.org/Graphics/SVG/1.1/DTD/svg11.dtd"><svg width="100%" height="100%" viewBox="0 0 352 352" version="1.1" xmlns="http://www.w3.org/2000/svg" xmlns:xlink="http://www.w3.org/1999/xlink" xml:space="preserve" xmlns:serif="http://www.serif.com/" style="fill-rule:evenodd;clip-rule:evenodd;stroke-linejoin:round;stroke-miterlimit:2;"><path d="M150.359,319.397l-2.304,32.348l2.394,0.255l2.455,-33.688l4.991,-9.44l2.416,-3.894l24.149,-27.035l23.501,-14.433l2.596,-2.051l-0,-1.669l-27.589,16.963l-15.809,8.318l8.305,-16.796l-3.79,3.663l-13.186,28.448l9.074,-23.591l-3.776,0.174l0.687,2.19l-7.838,20.298l2.315,-15.797l-1.702,0.227l-3.94,16.41l-1.398,9.482l-1.667,-1.501l-2.462,-20.178l-2.703,-0.494l2.907,17.904l-1.846,-1.756l-3.294,-15.388l-1.318,0.069l1.318,8.688l-8.19,-10.548l-1.265,0.18l4.485,9.143l-3.725,0.006l-0.644,1.059l2.406,1.347l2.718,-0.201l7.604,13.733l-46.112,-44.142l-0.997,0.672l23.023,24.09l-24.748,-22.289l-1.778,1.284l-2.416,4.94l-1.062,-0l-1.368,-1.091l-1.546,1.091l0.414,1.546l2.5,1.134l2.06,-2.68l2.97,-4.94l51.472,45.101l1.713,2.839Zm8.294,-15.581l8.249,-16.808l13.159,-7.098l-21.408,23.906Zm51.904,-40.306l-2.596,2.051l-1.804,3.983l-0.055,1.841l-0.006,3.182l1.865,1.83l-2.375,1.072l-0.277,1.739l0.844,2.636l1.808,0l-1.111,-2.665l3.707,-1.74l-0,-2.094l-2.596,-2.293l0,-2.844l2.596,-4.647l-0,-2.051Z" style="fill:#fff;"/><path d="M94.833,273.831c-0.375,0.254 -0.653,0.596 -0.628,1.216c0.024,0.594 1.008,1.413 1.679,1.638c1.016,0.341 1.205,0.814 1.628,1.053c0.617,0.349 1.371,0.178 1.678,0.038c0.439,-0.2 0.958,-0.873 0.955,-1.379c-0.005,-0.655 -0.138,-0.607 -0.283,-1.089c-0.223,-0.743 -0.484,-1.212 -0.961,-1.668c-0.672,-0.64 -1.434,-1.108 -2.015,-0.935c-0.793,0.235 -1.476,0.613 -2.053,1.126Z" style="fill:#13c8d5;"/><path d="M22.379,115.418c2.777,-14.831 10.565,-23.027 20.217,-26.869c10.755,-4.281 22.677,-1.392 32.9,2.984l16.648,51.529l-26.956,4.725l-42.809,-32.369Z" style="fill:#fd936b;"/><path d="M21.022,218.736c-1.889,-8.633 0.376,-17.373 5.542,-24.419c9.077,-12.382 19.095,-16.112 28.545,-17.33l23.543,9.932l4.009,28.433l-22.33,28.522l-25.618,-4.148c-5.916,-1.978 -10.87,-8.094 -13.691,-20.99Z" style="fill:#bc95eb;"/><path d="M118.397,174.831l20.894,-11.965l30.014,33.843l-4.727,12.075l-19.571,9.926l-20.36,-21.231l-6.25,-22.648Z" style="fill:#13c8d5;"/><path d="M131.862,165.63c2.26,6.077 5.556,11.283 12.271,17.35c6.36,5.746 10.591,9.199 20.247,8.125l48.808,-11.219l-15.648,-36.152l-59.045,0.789c-10.664,1.414 -15.213,6.895 -6.633,21.107Z" style="fill:#bc95eb;"/><path d="M158.649,174.014l1.35,18.487l1.498,-1.121l-1.756,-21.501l-1.844,-0.196l0.752,4.331Z" style="fill:#ccc;"/><path d="M106.035,252.635c-0.778,6.118 -2.174,11.247 -4.211,14.638c-2.637,4.39 -6.197,6.962 -9.68,7.839c-13.623,3.427 -28.173,-0.362 -40.794,-7.085c-11.812,-6.292 -20.257,-21.57 -20.904,-28.602c-0.737,-8.013 -0.444,-15.555 2.375,-21.638c4.831,-10.426 16.86,-19.889 26.165,-20.539c8.538,-0.596 18.48,0.886 22.78,5.034l24.913,32.579c0.15,3.881 0.13,7.666 -0.064,11.241l14.92,-30.065l33.727,-3.043l20.487,15.747l4.312,31.036c-3.699,9.202 -9.798,18.913 -22.247,28.31c-5.706,4.307 -10.363,5.226 -17.945,3.664c-7.343,-1.513 -14.445,-5.761 -21.831,-13.897c-6.18,-6.809 -10.593,-14.523 -12.003,-25.219Zm50.16,-82.312c-0.294,0.026 -0.454,0.157 -0.624,0.363c-0.181,0.22 -0.204,0.348 -0.264,0.626c-0.058,0.274 -0.012,0.649 0.198,1.182c0.145,0.368 0.791,0.854 1.402,1.199c0.59,0.333 1.063,0.611 1.663,0.744c0.541,0.077 1.053,-0.017 1.517,-0.392c0.332,-0.269 0.413,-0.591 0.423,-1.406c0.005,-0.361 -0.249,-1.015 -0.532,-1.494c-0.335,-0.568 -0.7,-0.824 -1.077,-0.949l-2.706,0.127Zm-92.36,-78.617c6.278,-17.275 18.58,-25.988 38.073,-25.365c12.484,0.398 28.127,10.115 32.026,20.09l5.935,52.071l-28.096,8.157c-30.982,-4.739 -42.766,-15.484 -47.284,-27.918c-3.162,-8.704 -3.598,-18.934 -0.654,-27.035Z" style="fill:#16c8d5;"/><path d="M1.689,131.524c3.11,-10.64 15.065,-19.025 24.808,-21.001c11.762,-2.387 21.851,0.523 29.51,5.17c11.137,6.757 17.959,14.246 20.726,20.037l8.459,28.32l-3.476,15.836l-15.983,11.036c-13.373,0.992 -26.231,-2.094 -39.594,-8.158c-8.704,-3.949 -16.894,-9.401 -23.16,-21.995c-3.489,-7.012 -3.905,-20.296 -1.29,-29.245Z" style="fill:#bc95eb;"/><path d="M276.685,156.322c11.13,6.223 15.93,17.025 17.086,25.813c1.701,12.929 -5.175,26.922 -13.748,33.534l-23.883,-15.783l20.545,-43.564Z" style="fill:#13c8d5;"/><path d="M203.643,52.377c14.477,-5.986 30.445,-4.796 39.764,4.886c8.824,9.167 12.781,19.484 11.31,30.945c-1.425,11.107 -5.412,17.695 -11.075,24.685c-7.306,6.744 -16.515,11.573 -26.848,13.859c-11.169,2.471 -21.113,4.882 -27.936,-1.121c-8.106,-7.133 -12.227,-24.313 -10.815,-37.166c1.076,-9.79 4.794,-17.695 10.19,-24.403c4.341,-5.101 9.398,-9.199 15.41,-11.685Z" style="fill:#fddd61;"/><path d="M64.146,143.798c10.759,-15.243 27.216,-21.423 47.627,-13.747c8.034,3.022 20.368,15.493 23.253,33.464c1.011,6.298 -0.291,17.221 -2.006,22.367l-27.623,27.112c-27.328,-2.414 -40.615,-13.538 -45.673,-28.4c-6.099,-17.919 -2.586,-30.867 4.422,-40.796Z" style="fill:#fd936b;"/><path d="M122.287,35.387c17.77,-21.359 46.945,-19.413 60.211,0.219c7.608,11.259 7.734,21.044 6.66,29.4c-1.935,15.043 -9.013,24.833 -21.14,31.519l-31.002,9.297c-11.871,-3.328 -23.345,-16.287 -24.841,-31.705c-1.59,-16.384 1.484,-28.358 10.112,-38.73Z" style="fill:#fd936b;"/><path d="M114.563,110.175c2.919,-30.602 31.506,-41.949 51.668,-36.133c14.594,4.21 26.883,17.852 29.17,31.942c3.239,19.961 -2.943,36.791 -16.047,50.956c-8.71,9.415 -13.81,13.339 -20.581,13.456c-1.922,0.033 -3.984,0.01 -5.786,-0.639c-11.983,-4.318 -22.33,-14.966 -29.486,-24.718c-7.733,-10.539 -10.128,-22.391 -8.938,-34.864Z" style="fill:#13c8d5;"/><path d="M261.154,131.594c10.694,4.03 20.457,15.669 20.51,34.433c0.041,14.455 -8.251,27.501 -18.501,33.859l-29.651,3.139l-10.651,4.038l-12.186,-5.556l22.618,-53.155c6.403,-10.702 14.379,-18.614 27.861,-16.758Z" style="fill:#bc95eb;"/><path d="M190.504,183.326c-2.745,-4.345 -4.691,-9.482 -5.577,-15.72c-3.077,-21.641 6.562,-40.162 20.4,-48.015c16.067,-9.116 33.464,-9.262 46.635,0.475c12.502,9.243 16.282,23.217 13.974,38.459c-1.515,10.005 -8.384,22.23 -17.448,29.21c-10.359,7.979 -22.432,11.995 -31.825,12.147c10.425,17.206 10.38,34.372 0.374,51.167c-8.341,14.002 -30.164,23.605 -45.762,19.42c-14.654,-3.932 -25.52,-14.58 -29.293,-29.67c-3.767,-14.051 -0.024,-29.785 6.672,-39.039c10.465,-14.464 27.129,-20.331 41.85,-18.434Z" style="fill:#fd936b;"/><path d="M144.183,292.41c-0.266,0.057 -0.313,0.191 -0.519,0.345c-0.167,0.124 -0.197,0.213 -0.195,0.465c0.004,0.347 0.226,0.552 0.382,0.647c0.25,0.151 0.336,0.204 0.949,0.309c0.522,0.088 1.049,0.078 1.626,-0.048c0.6,-0.131 1.017,-0.533 1.184,-1.004c0.074,-0.209 0.023,-0.387 -0.147,-0.543c-0.25,-0.202 -0.521,-0.319 -0.825,-0.316c-0.774,0.007 -1.696,-0.017 -2.455,0.145Z" style="fill:#60e3d5;"/><path d="M98.661,162.632c-0.29,-2.258 -0.113,-4.197 0.752,-5.494c0.97,-1.456 2.994,-2.065 4.92,-1.919c2.574,0.195 5.196,1.089 6.51,2.878c1.071,1.458 1.3,2.831 1.032,4.154c-0.413,2.032 -0.997,2.75 -1.922,3.675l-9.244,0.887c-1.128,-0.944 -1.811,-2.337 -2.048,-4.181Z" style="fill:#fff;fill-opacity:0.5;"/><path d="M209.179,261.591l-0.28,-0.132c-0.538,0.011 -0.767,0.368 -0.878,0.858c-0.132,0.338 -0.045,0.99 0.262,1.568c0.38,0.716 1.126,1.261 1.688,1.45c1.298,0.437 2.427,0.192 2.616,-0.31c10.369,6.692 43.381,12.936 62.925,-3.773c18.643,-15.939 20.299,-38.273 9.245,-54.189c-8.129,-11.706 -19.858,-16.516 -33.336,-16.727c-15.609,-0.244 -35.473,10.41 -41.123,25.447c-7.227,19.235 -5.651,38.287 -1.119,45.808Zm-92.267,-12.066c-16.168,6.802 -47.734,-10.087 -52.62,-32.341c-4.103,-18.688 -1.646,-37.109 19.568,-49.973c12.735,-7.722 39.933,-5.241 52.448,12.675c10.024,14.35 10.005,33.625 4.087,46.706c-4.958,10.958 -10.979,17.673 -23.483,22.933Z" style="fill:#fddd61;"/><path d="M251.077,222.75c0.871,-4.262 3.638,-5.906 6.681,-6.237c3.094,-0.336 5.853,0.412 8.244,2.352c2.367,2.553 2.454,5.366 2.033,7.599c-0.539,2.855 -1.354,3.964 -3.174,5.344c-1.644,1.246 -6.886,1.759 -8.951,0.266c-3.677,-2.66 -5.5,-6.062 -4.833,-9.324Zm-63.852,-11.127c1.786,-1.527 4.905,-2.492 7.896,-2.227c3.104,0.274 5.861,3.21 6.704,6.518c1.151,4.522 -0.391,9.013 -2.413,10.489c-3.174,2.317 -8.7,2.524 -10.726,0.305c-2.211,-2.421 -3.318,-4.346 -3.581,-8.624c-0.126,-2.054 0.395,-4.985 2.12,-6.461Zm-79.168,-18.996c-2.644,2.759 -3.262,5.864 -2.098,9.273c1.624,4.755 9.293,6.653 13.409,3.558c2.36,-1.775 4.069,-6.474 1.972,-10.473c-3.011,-5.741 -10.347,-5.421 -13.283,-2.358Zm119.869,-47.032c1.094,-3.524 3.187,-5.616 6.157,-6.449c2.287,-0.641 5.074,-0.544 7.861,0.902c1.944,1.009 2.97,3.58 3.171,6.752c0.175,2.764 0.056,3.773 -1.176,6.064c-1.429,2.659 -4.881,3.628 -7.642,3.698c-3.197,0.081 -5.946,-1.053 -7.485,-3.587c-1.179,-1.941 -1.536,-5.288 -0.886,-7.38Zm-188.409,-2.816c-0.118,-0.898 0.161,-2.259 0.766,-3.29c0.321,-0.546 0.815,-0.91 1.468,-1.242c1.346,-0.687 3.17,-0.564 5.376,-0.046c1.699,0.399 3.287,1.069 5.119,2.495c0.968,0.753 1.396,2.421 1.481,3.869c0.074,1.263 -0.448,2.569 -1.523,3.835c-1.334,1.572 -3.056,3.184 -5.433,3.425c-1.385,0.14 -2.499,-0.759 -4.236,-2.493c-1.68,-1.677 -2.678,-3.79 -3.018,-6.553Zm117.907,-35.047c0.671,-2.921 1.917,-5.355 3.755,-6.427c2.956,-1.725 6.023,-1.107 8.557,0.154c2.15,1.071 3.704,3.386 4.443,6.373c0.908,3.675 0.369,7.534 -0.957,9.581c-1.848,2.851 -4.769,3.897 -6.263,3.785c-3.292,-0.246 -7.09,-2.336 -8.158,-4.657c-1.425,-3.099 -2.104,-5.645 -1.377,-8.809Zm61.286,-27.283c1.134,-2.032 2.78,-3.475 5.398,-3.797c2.204,-0.272 5.808,0.885 6.861,2.449c1.421,2.112 1.397,5.649 0.796,8.668c-0.489,2.458 -2.08,4.785 -4.156,5.39c-2.312,0.674 -5.738,0.565 -7.416,-1.78c-2.324,-3.247 -2.638,-8.86 -1.483,-10.93Zm-65.928,-22.256c0.442,-2.693 1.62,-4.941 3.304,-6.255c1.828,-1.427 3.98,-1.81 6.515,-1.448c2.885,0.413 4.22,2.158 4.811,4.442c0.462,1.785 0.567,3.69 0.103,5.689c-0.485,2.095 -1.573,5.097 -3.092,5.983c-2.001,1.167 -3.717,1.622 -5.547,1.342c-3.469,-0.53 -5.039,-2.144 -5.727,-3.817c-0.558,-2.415 -0.629,-4.342 -0.367,-5.936Z" style="fill:#fff;fill-opacity:0.6;"/></svg>