<?xml version="1.0" encoding="UTF-8" standalone="no"?><!DOCTYPE svg PUBLIC "-//W3C//DTD SVG 1.1//EN" "http://www.w3.org/Graphics/SVG/1.1/DTD/svg11.dtd"><svg width="100%" height="100%" viewBox="0 0 352 352" version="1.1" xmlns="http://www.w3.org/2000/svg" xmlns:xlink="http://www.w3.org/1999/xlink" xml:space="preserve" xmlns:serif="http://www.serif.com/" style="fill-rule:evenodd;clip-rule:evenodd;stroke-linejoin:round;stroke-miterlimit:2;"><path d="M282.656,352c-0.482,-3.627 2.031,-7.203 5.624,-7.703c0.75,-0.094 1.469,-0.063 2.188,0.062c12.718,2.5 24.999,-5.749 27.499,-18.437c0.625,-3.062 0.594,-6.218 -0.031,-9.249c-0.719,-3.594 1.563,-7.063 5.125,-7.813c0.75,-0.156 1.563,-0.187 2.313,-0.062c11.812,1.781 22.812,-6.344 24.593,-18.125c1.375,-9.062 -3.125,-18 -11.188,-22.281c-3.218,-1.75 -4.437,-5.75 -2.718,-8.937c0.594,-1.094 1.469,-2 2.531,-2.594c11.094,-6.468 14.843,-20.749 8.375,-31.843c-0.719,-1.219 -1.531,-2.375 -2.438,-3.437c-1.656,-1.938 -4.406,-2.532 -6.749,-1.469c-34.75,16.125 -74.812,16.312 -109.717,0.469c-3.313,-1.5 -4.813,-5.407 -3.313,-8.719c0.657,-1.469 1.844,-2.656 3.313,-3.312c54.686,-24.25 93.654,-74.155 103.904,-133.092c0.063,-0.218 -0.094,-0.437 -0.312,-0.5l-0.125,0c-0.032,0 -0.094,0.032 -0.125,0.032l0.062,-0c-35.749,12.968 -73.498,19.624 -111.529,19.687c-23.781,-0.563 -45.78,12.593 -56.499,33.843c-9.093,18 -31.03,25.218 -49.03,16.125c-5.563,-2.782 -10.281,-6.969 -13.781,-12.125c-8.75,-12.937 -19.093,-24.687 -30.812,-35.031c-12.437,-10.937 -31.156,-10.625 -43.218,0.719c-10.531,9.906 -19.437,21.468 -26.312,34.218c-0.625,1.125 -0.187,2.531 0.938,3.125c0.218,0.125 0.468,0.219 0.718,0.25l17.844,2.906c12.343,2 22.062,11.563 24.28,23.875l11.25,62.499c8.531,47.467 53.968,79.029 101.436,70.467c2.344,-0.406 4.687,-0.938 7,-1.531c31.937,-8.5 65.123,8.437 76.967,39.249l7.076,18.734c0,-0 34.854,0 34.861,-0Zm-150.935,-209.605c-4.5,-40.687 24.843,-77.311 65.53,-81.811c2.062,-0.25 4.094,-0.375 6.156,-0.438c38.343,-6.312 75.749,-17.531 111.217,-33.343c0.218,-0.094 0.5,0 0.593,0.219c0.032,0.062 0.032,0.125 0.032,0.219c-1.157,18.437 -7.188,36.249 -17.469,51.592c-25.468,6.375 -51.592,9.625 -77.842,9.688c-26.156,-0.594 -50.311,13.874 -62.092,37.218c-5,9.937 -15.031,16.312 -26.125,16.656Zm-81.905,-28.937c3.219,-0.063 5.875,2.468 5.938,5.656l-0,0.187c0.031,3.188 -2.531,5.813 -5.75,5.844c-3.188,-0 -5.813,-2.562 -5.844,-5.75l0,-0.094c0,-3.187 2.5,-5.781 5.656,-5.843Z" style="fill:#ad7cea;fill-rule:nonzero;"/><path d="M94.86,189.42c-3.109,-12.263 -13.689,-14.907 -23.073,-14.089c-9.89,0.861 -18.59,7.924 -18.705,21.74c-0.181,21.77 34.199,46.441 41.778,51.02c7.92,-5.513 41.756,-30.018 42.152,-53.615c0.207,-12.356 -7.015,-19.678 -18.311,-21.002c-10.271,-1.203 -21.49,3.106 -23.841,15.946Z" style="fill:#fd936b;"/></svg>