<?xml version="1.0" encoding="UTF-8" standalone="no"?><!DOCTYPE svg PUBLIC "-//W3C//DTD SVG 1.1//EN" "http://www.w3.org/Graphics/SVG/1.1/DTD/svg11.dtd"><svg width="100%" height="100%" viewBox="0 0 352 352" version="1.1" xmlns="http://www.w3.org/2000/svg" xmlns:xlink="http://www.w3.org/1999/xlink" xml:space="preserve" xmlns:serif="http://www.serif.com/" style="fill-rule:evenodd;clip-rule:evenodd;stroke-linejoin:round;stroke-miterlimit:2;"><path d="M198.057,233.694l36.642,118.306l-131.03,-0c0,-0 25.636,-115.413 28.918,-116.263l65.47,-2.043" style="fill:#fddd61;fill-rule:nonzero;"/><path d="M205.887,311.544c-2.067,-8.109 -9.102,-9.857 -15.342,-9.316c-6.576,0.569 -12.361,5.24 -12.437,14.376c-0.121,14.396 22.739,30.709 27.779,33.738c5.266,-3.646 27.764,-19.851 28.027,-35.454c0.138,-8.171 -4.664,-13.013 -12.175,-13.888c-6.829,-0.796 -14.289,2.054 -15.852,10.544Zm123.235,-153.985c-1.801,-7.379 -5.902,-14.236 -11.33,-19.525c-5.242,-5.105 -11.672,-8.685 -18.715,-10.32c3.79,-11.587 2.496,-24.532 -3.606,-35.209c-6.994,-12.241 -19.989,-19.611 -33.933,-20.55c-5.241,-0.353 -10.517,0.281 -15.508,1.843c0.063,-4.825 -2.33,-9.73 -5.795,-13.19c-6.603,-6.598 -16.054,-7.211 -24.625,-4.522c-4.226,1.327 -8.221,3.277 -12.104,5.407c-6.759,-8.375 -16.61,-14.035 -27.322,-15.529c-11.37,-1.587 -22.612,1.746 -31.625,8.766c-4.111,3.201 -7.613,7.161 -10.241,11.652c-9.004,-4.35 -19.492,-5.405 -29.209,-2.932c-10.09,2.565 -18.773,9.115 -24.457,17.772c-2.69,4.097 -4.662,8.711 -5.744,13.501c-18.991,0.598 -39.01,1.867 -55.18,12.842c-7.233,4.911 -13.429,11.503 -16.859,19.616c-3.154,7.459 -3.76,16.028 -1.557,23.837c1.132,4.013 3.027,7.727 5.62,10.985c2.495,3.136 5.739,5.317 8.998,7.577c1.427,0.99 2.833,1.998 4.082,3.209c1.124,1.089 1.947,2.095 2.197,3.439c0.002,0.012 0.004,0.021 0.006,0.031c0.015,0.177 0.016,0.364 0.008,0.542c-0.009,0.158 -0.028,0.444 -0.148,0.858c-0.145,0.499 -0.523,1.116 -0.861,1.475c-1.063,1.123 -2.496,1.888 -4.001,2.643c-3.364,1.692 -6.755,3.105 -9.5,5.774c-2.538,2.469 -4.332,5.638 -5.384,9.001c-2.209,7.064 -1.073,14.865 1.938,21.505c7.566,16.691 27.705,21.068 44.244,22.195c0.573,0.039 1.147,0.074 1.721,0.107c-3.596,11.927 1.82,25.478 11.689,33.024c12.806,9.791 30.273,9.905 45.199,5.735c8.18,-2.288 15.966,-5.757 23.646,-9.361c4.939,12.918 17.767,21.421 31.169,24.009c7.904,1.53 15.948,1.202 23.682,-1.044c8.875,-2.578 16.941,-7.193 24.21,-12.827c7.531,-5.838 14.108,-12.765 20.197,-20.067c12.902,4.953 27.487,4.203 39.938,-1.929c12.952,-6.377 22.128,-18.923 25.082,-32.961c1.379,-6.564 1.488,-13.36 0.161,-19.919c13.821,-1.782 26.314,-11.403 31.841,-24.193c3.189,-7.379 3.99,-15.434 2.076,-23.267Z" style="fill:#fd946a;fill-rule:nonzero;"/><path d="M275.774,109.331c-0.305,-4.353 -1.91,-8.592 -5.162,-11.607c-3.228,-2.992 -7.364,-4.426 -11.667,-4.959c-7.758,-0.96 -15.984,1.514 -22.557,5.568c-5.866,3.618 -10.969,8.763 -14.285,14.845c-5.889,-2.461 -12.08,-4.274 -18.356,-5.475c-34.692,-6.639 -78.686,-2.105 -109.88,18.199c-4.123,-3.358 -8.5,-6.347 -13.485,-8.431c-6.323,-2.641 -13.66,-3.257 -20.177,-0.886c-3.182,1.159 -6.197,2.908 -8.49,5.433c-2.753,3.035 -4.269,6.733 -4.78,10.769c-0.974,7.699 2.16,15.702 6.461,21.961c2.325,3.382 5.059,6.494 8.205,9.136c0.127,0.106 0.255,0.212 0.382,0.318c-2.135,6.211 -3.163,12.807 -2.455,19.338c2.074,19.108 17.804,33.057 34.998,39.447c9.623,3.577 19.729,5.365 29.897,6.537c11.244,1.298 22.57,1.94 33.888,1.896c10.939,-0.044 21.911,-0.669 32.763,-2.083c10.35,-1.348 20.697,-3.495 30.421,-7.351c16.606,-6.581 32.02,-18.769 38.516,-35.866c3.196,-8.416 4.01,-17.467 2.322,-26.313c-1.227,-6.425 -3.555,-12.615 -6.805,-18.283c4.239,-2.42 8.073,-5.607 11.175,-9.234c5.336,-6.236 9.654,-14.533 9.071,-22.959" style="fill:#fddd61;fill-rule:nonzero;"/><path d="M224.609,155.614c-0.641,-10.831 -9.586,-18.412 -19.713,-17.493c-1.876,0.171 -3.73,0.539 -5.467,1.042c-4.199,1.219 -8.148,3.456 -11.275,6.517c-3.253,3.181 -5.631,7.433 -5.703,12.063c-0.068,4.428 2.045,8.618 5.016,11.797c5.851,6.264 15.932,8.685 23.958,5.571c7.804,-3.029 13.688,-10.932 13.184,-19.497" style="fill:#fff;fill-rule:nonzero;"/><path d="M135.588,144.875c-11.522,-12.777 -33.698,-1.706 -36.37,13.392c-0.863,4.876 0.564,9.412 3.895,13.052c5.78,6.313 15.913,8.576 23.888,5.543c7.929,-3.013 13.702,-10.758 13.654,-19.359c-0.026,-4.702 -1.935,-9.154 -5.067,-12.628" style="fill:#fff;fill-rule:nonzero;"/><path d="M206.543,147.388c-12.969,-4.512 -18.512,17.955 -4.078,19.569c4.817,0.539 9.328,-2.668 10.416,-7.388c1.172,-5.095 -1.275,-10.42 -6.338,-12.181" style="fill:#010101;fill-rule:nonzero;"/><path d="M122.813,149.22c-12.971,-4.511 -18.513,17.955 -4.079,19.571c4.817,0.539 9.328,-2.67 10.415,-7.39c1.174,-5.094 -1.273,-10.419 -6.336,-12.181" style="fill:#010101;fill-rule:nonzero;"/><path d="M124.106,154.488c-0.109,-0.17 -0.24,-0.319 -0.385,-0.447c-0.131,-0.125 -0.277,-0.226 -0.436,-0.301c-0.434,-0.226 -0.941,-0.315 -1.441,-0.247c-0.348,0.047 -0.674,0.137 -0.976,0.328c-0.332,0.209 -0.672,0.524 -0.838,0.887c-0.164,0.356 -0.255,0.68 -0.202,1.078c0.053,0.387 0.209,0.671 0.467,0.97c0.542,0.635 1.498,0.809 2.276,0.607c0.099,-0.025 0.198,-0.06 0.296,-0.101c0.339,-0.104 0.656,-0.286 0.892,-0.546c0.526,-0.583 0.81,-1.513 0.347,-2.228" style="fill:#fff;fill-rule:nonzero;"/><path d="M207.528,152.533c-0.111,-0.17 -0.24,-0.317 -0.386,-0.447c-0.131,-0.126 -0.277,-0.227 -0.436,-0.302c-0.433,-0.226 -0.94,-0.312 -1.442,-0.245c-0.345,0.045 -0.674,0.135 -0.976,0.327c-0.33,0.211 -0.671,0.523 -0.836,0.887c-0.165,0.355 -0.255,0.679 -0.203,1.077c0.053,0.389 0.209,0.671 0.467,0.97c0.542,0.636 1.498,0.809 2.274,0.608c0.102,-0.025 0.201,-0.06 0.298,-0.102c0.339,-0.103 0.656,-0.286 0.892,-0.545c0.526,-0.583 0.81,-1.514 0.348,-2.228" style="fill:#fff;fill-rule:nonzero;"/><path d="M179.875,166.971c-1.351,-5.632 -3.086,-11.173 -5.05,-16.616c-2.22,-6.157 -4.682,-12.224 -7.214,-18.257c-1.898,-4.529 -7.587,-10.087 -11.426,-3.768c-1.286,2.117 -1.43,4.646 -2.227,6.947c-1.373,3.965 -2.67,7.96 -4.005,11.939c-1.912,5.702 -3.958,11.378 -5.711,17.132c-1.68,5.515 -2.519,11.313 -0.139,16.75c2.128,4.868 7.014,7.8 11.771,9.644c4.642,1.8 9.988,2.852 14.899,1.592c5.122,-1.316 8.907,-5.464 10.015,-10.589c1.062,-4.907 0.24,-9.964 -0.913,-14.774Zm-96.752,-32.937c-1.786,-2.573 -3.768,-4.971 -6.45,-6.661c-2.738,-1.724 -5.984,-2.375 -9.168,-1.829c-6.55,1.12 -9.425,8.224 -7.899,14.158c0.903,3.515 3.117,6.511 5.53,9.144c0.33,0.361 0.743,0.607 1.191,0.754c0.182,0.267 0.394,0.502 0.633,0.687c1.103,0.851 3.056,0.946 4.019,-0.24c3.575,-4.391 7.38,-8.528 11.658,-12.25c0.966,-0.837 1.226,-2.696 0.486,-3.763Zm178.331,-22.213c-0.157,-2.589 -1.414,-5.211 -3.792,-6.456c-4.561,-2.391 -9.892,0.44 -13.774,2.945c-4.384,2.831 -8.163,6.513 -11.023,10.879c-0.309,0.471 -0.439,1.031 -0.419,1.597c-0.348,1.256 0.121,2.611 1.431,3.584c2.167,1.607 4.332,3.217 6.501,4.818c1.075,0.796 2.116,1.754 3.472,2.009c1.929,0.361 3.314,-0.526 4.74,-1.683c3.873,-3.148 7.603,-6.731 10.55,-10.774c1.44,-1.977 2.463,-4.433 2.314,-6.919Z" style="fill:#fd936b;fill-rule:nonzero;"/><path d="M159.537,269.2c-2.444,-8.394 -3.368,-17.096 -2.659,-25.81c0.092,-1.126 -1.027,-2.089 -2.091,-2.089c-1.225,-0 -1.979,0.96 -2.092,2.089c-0.907,9.036 0.023,18.272 2.796,26.925c0.818,2.554 4.804,1.491 4.046,-1.115Zm12.882,-18.125c-0.467,-2.261 -4.394,-1.795 -4.097,0.554c0.534,4.204 0.985,8.414 1.199,12.65c0.134,2.682 4.208,2.719 4.201,0c-0.009,-4.425 -0.405,-8.866 -1.303,-13.204Zm-87.325,-11.805c-4.017,5.976 -7.126,12.531 -9.512,19.314c-0.375,1.068 0.427,2.293 1.465,2.578c1.177,0.321 2.18,-0.399 2.581,-1.464c2.408,-6.399 5.516,-12.488 9.025,-18.349c1.375,-2.297 -2.093,-4.261 -3.559,-2.079Zm18.448,1.461c-1.372,4.538 -2.596,9.11 -3.775,13.698c-0.673,2.624 3.297,3.716 4.058,1.118c1.331,-4.547 2.614,-9.104 3.751,-13.706c0.646,-2.613 -3.254,-3.686 -4.034,-1.11Zm-24.652,-16.956c-7.777,6.789 -13.814,15.598 -17.989,24.995c-0.456,1.027 -0.299,2.24 0.749,2.851c0.902,0.528 2.375,0.277 2.853,-0.748c4.247,-9.108 10.238,-17.077 17.298,-24.193c1.884,-1.898 -0.932,-4.635 -2.911,-2.905Zm171.498,20.825c-1.096,-7.501 -5.727,-14.311 -12.091,-18.371c-0.947,-0.605 -2.294,-0.196 -2.845,0.745c-0.601,1.025 -0.185,2.209 0.744,2.843c5.426,3.686 8.987,9.477 10.172,15.889c0.202,1.109 1.546,1.735 2.565,1.456c1.196,-0.33 1.619,-1.445 1.455,-2.562Zm24.093,-21.82c-4.16,-4.641 -9.356,-8.16 -15.241,-10.243c-1.046,-0.372 -2.25,0.42 -2.529,1.434c-0.324,1.176 0.402,2.111 1.435,2.53c5.058,2.047 9.682,5.219 13.395,9.218c1.828,1.97 4.717,-0.955 2.94,-2.939Zm-225.197,-17.693c-0.62,-1.059 -1.832,-1.221 -2.866,-0.75c-8.509,3.86 -16.403,8.809 -23.509,14.882c-0.862,0.735 -0.758,2.207 0,2.963c0.877,0.875 2.077,0.706 2.967,-0c6.979,-5.547 14.608,-10.385 22.657,-14.234c1.02,-0.488 1.288,-1.944 0.751,-2.861Zm-7.2,-14.376c-9.471,2.04 -18.716,4.772 -27.803,8.127c-1.059,0.392 -1.779,1.417 -1.462,2.571c0.287,1.04 1.5,1.825 2.574,1.459c9.131,-3.113 18.441,-5.801 27.806,-8.117c2.632,-0.651 1.514,-4.608 -1.115,-4.04Zm246.29,-5.568c-3.297,-0.87 -6.615,-1.656 -9.929,-2.461c-2.595,-0.629 -3.7,3.343 -1.104,3.999c3.306,0.838 6.606,1.696 9.927,2.468c2.601,0.603 3.704,-3.322 1.106,-4.006Zm-239.701,-21.569c-4.83,-0.662 -9.743,-0.855 -14.607,-1.13c-1.139,-0.064 -2.11,1.013 -2.11,2.107c-0,1.223 0.969,2.008 2.11,2.107c4.663,0.407 9.375,0.93 14.059,0.959c1.017,0.007 1.906,-0.787 2.025,-1.784c0.107,-0.904 -0.45,-2.118 -1.477,-2.259Zm260.044,-7.516c-12.127,-1.258 -24.486,-0.227 -36.243,3c-2.573,0.707 -1.489,4.655 1.102,3.994c11.479,-2.922 23.343,-3.868 35.141,-2.828c1.122,0.099 2.086,-1.029 2.086,-2.083c-0,-1.225 -0.961,-1.967 -2.086,-2.083Zm-17.485,-14.442c-5.939,0.233 -11.788,1.439 -17.324,3.603c-1.046,0.406 -1.772,1.392 -1.451,2.554c0.275,1.001 1.504,1.856 2.557,1.452c5.195,-1.998 10.658,-3.177 16.218,-3.467c2.649,-0.139 2.678,-4.246 -0,-4.142Zm-257.852,-4.857c-2.97,-0.252 -5.947,-0.378 -8.926,-0.507c-1.128,-0.049 -2.088,0.994 -2.088,2.085c0,1.194 0.959,2.009 2.088,2.087c2.974,0.202 5.946,0.407 8.926,0.484c1.122,0.028 2.076,-0.975 2.076,-2.075c0,-1.201 -0.954,-1.977 -2.076,-2.074Zm258.667,-27.25c-2.934,1.153 -5.833,2.384 -8.736,3.612c-2.149,0.908 -0.588,4.698 1.607,3.807c2.921,-1.186 5.838,-2.373 8.725,-3.634c2.13,-0.928 0.594,-4.645 -1.596,-3.785Zm-186.541,-0.508c-3.596,-4.309 -8.441,-7.4 -13.595,-9.536c-0.998,-0.413 -2.233,0.366 -2.598,1.274c-0.375,0.933 -0.109,2.281 0.901,2.745c4.605,2.123 8.602,5.063 12.3,8.506c2.023,1.883 4.718,-0.924 2.992,-2.989Zm115.672,-40.582c-1.171,-0.321 -2.171,0.398 -2.57,1.456c-3.595,9.577 -8.033,18.894 -12.941,27.866c-1.295,2.371 2.266,4.461 3.629,2.118c5.36,-9.209 9.709,-18.866 13.34,-28.875c0.385,-1.059 -0.431,-2.284 -1.458,-2.565Zm-92.33,27.29c-4.235,-8.237 -9.94,-15.78 -16.562,-22.251c-1.909,-1.868 -4.796,1.016 -2.931,2.927c6.258,6.421 11.507,13.616 15.897,21.425c1.319,2.346 4.815,0.272 3.596,-2.101Zm53.777,-21.869c-0.122,-1.126 -0.879,-2.098 -2.101,-2.098c-1.073,0 -2.187,0.962 -2.1,2.098c0.521,7.037 0.004,14.042 -1.179,20.989c-0.189,1.106 0.293,2.239 1.454,2.558c1.072,0.295 2.285,-0.358 2.563,-1.452c1.823,-7.188 2.156,-14.735 1.363,-22.095Zm-32.038,-3.97c-0.853,-2.51 -4.842,-1.449 -4.004,1.102c2.466,7.518 3.173,15.565 2.248,23.415c-0.274,2.316 3.783,2.887 4.108,0.556c1.185,-8.486 0.41,-16.954 -2.352,-25.073Z" style="fill:#fddd61;fill-rule:nonzero;"/><path d="M161.588,193.13c0.113,0.476 0.256,0.931 0.327,1.289c0.498,2.494 0.666,4.945 -0.858,7.095c-1.28,1.806 -3.154,3.208 -5.087,4.252c-4.895,2.642 -11.995,3.372 -16.369,-0.683c-1.055,-0.977 -1.941,-2.163 -2.484,-3.503c-0.599,-1.477 -0.505,-2.815 -0.598,-4.359c-0.126,-2.103 -2.938,-2.481 -3.633,-0.491c-0.561,1.602 -0.248,3.625 0.247,5.211c0.545,1.753 1.462,3.322 2.63,4.727c2.43,2.921 6.014,4.509 9.736,4.94c7.098,0.825 15.3,-2.613 19.036,-8.849c1.814,2.477 4.516,4.178 7.408,5.207c6.615,2.358 16.151,2.221 21.214,-3.302c2.564,-2.797 4.175,-7.219 2.678,-10.919c-0.414,-1.022 -1.366,-1.746 -2.519,-1.427c-1.015,0.278 -1.795,1.468 -1.432,2.517c0.813,2.34 0.381,4.608 -1.112,6.605c-1.693,2.265 -4.45,3.348 -7.156,3.808c-2.88,0.488 -6.036,0.28 -8.87,-0.388c-1.678,-0.396 -3.328,-1.001 -4.781,-1.936c-1.274,-0.818 -2.971,-2.208 -3.341,-3.759c-0.059,-0.246 -0.076,-0.501 -0.096,-0.756c-0.075,-1.054 0,-2.072 -0.046,-3.124c0.095,-0.669 0.274,-1.318 0.432,-1.974c1.023,-0.084 2.045,-0.242 3.063,-0.482c3.111,-0.738 6.154,-2.31 8.403,-4.604c1.212,-1.238 2.463,-2.847 2.908,-4.556c0.176,-0.681 0.264,-1.541 0.207,-2.411c-0.22,-3.325 -2.33,-3.949 -5.276,-4.524c-5.831,-1.137 -37.821,-4.984 -31.451,8.321c0.82,1.712 2.392,2.922 4.059,3.752c3.974,1.981 8.318,3.696 12.761,4.323Z" style="fill:#010101;fill-rule:nonzero;"/></svg>