<?xml version="1.0" encoding="UTF-8" standalone="no"?><!DOCTYPE svg PUBLIC "-//W3C//DTD SVG 1.1//EN" "http://www.w3.org/Graphics/SVG/1.1/DTD/svg11.dtd"><svg width="100%" height="100%" viewBox="0 0 352 352" version="1.1" xmlns="http://www.w3.org/2000/svg" xmlns:xlink="http://www.w3.org/1999/xlink" xml:space="preserve" xmlns:serif="http://www.serif.com/" style="fill-rule:evenodd;clip-rule:evenodd;stroke-linejoin:round;stroke-miterlimit:2;"><path d="M314.017,0c-150.452,58.722 -261.843,191.724 -285.613,352l-28.404,0l0,-37.797c29.773,-133.746 116.91,-246.946 235.232,-314.203l78.785,0Z" style="fill:#fff;"/><path d="M352,22.453c-150.097,48.253 -263.45,174.792 -288.349,329.547l-35.247,0c23.781,-160.278 135.169,-293.289 285.613,-352l37.983,0l0,22.453Z" style="fill:#fddd61;"/><path d="M352,58.202l0,33.708c-112.973,44.447 -197.628,141.887 -220.445,260.09l-32.551,0c23.889,-135.997 122.279,-247.536 252.996,-293.798Z" style="fill:#bc95eb;"/></svg>