<svg viewBox="0 0 872 658" xmlns="http://www.w3.org/2000/svg" xml:space="preserve" style="fill-rule:evenodd;clip-rule:evenodd;stroke-linejoin:round;stroke-miterlimit:2"><path d="M869 296a109 109 0 0 0-79-79c10-31 6-65-10-93-18-32-53-52-89-54-14-1-28 0-41 5 0-13-6-26-16-35-17-18-42-19-65-12-11 3-21 8-32 14a111 111 0 0 0-183 13c-23-12-51-14-76-8a111 111 0 0 0-80 83c-50 1-103 5-146 34-19 13-35 30-44 51-9 20-10 43-5 63 3 11 8 21 15 29 7 9 15 14 24 20l11 9c3 3 5 5 6 9a11 11 0 0 1-1 4l-2 4-11 7c-8 4-17 8-25 15-6 6-11 15-14 24-6 18-3 39 5 56 20 45 73 56 117 59h5c-10 32 4 68 31 88 33 25 79 26 119 15 21-6 42-16 62-25 13 34 47 57 83 63 20 4 42 4 62-2 24-7 45-19 64-34 20-16 37-34 53-53 34 13 73 11 106-5a130 130 0 0 0 67-140c36-5 69-30 84-64 8-19 10-41 5-61" style="fill:#e0922e;fill-rule:nonzero"/><path d="M728 168c-1-11-5-22-13-30-9-8-20-12-31-13-21-3-42 4-60 14-15 10-29 23-38 40-15-7-31-12-48-15-92-17-208-6-290 48-11-9-23-17-36-22-16-7-36-9-53-2-8 3-16 7-22 14-8 8-12 18-13 28-3 21 6 42 17 58 6 9 13 17 22 24l1 1c-6 17-9 34-7 51 6 51 47 88 93 104 25 10 52 15 79 18a755 755 0 0 0 176-1c27-3 54-9 80-19 44-18 84-50 102-95 8-22 10-46 6-69-4-17-10-34-18-49 11-6 21-14 29-24 14-16 26-38 24-61" style="fill:#f9cb4a;fill-rule:nonzero"/><path d="M593 291c-2-29-25-49-52-47l-14 3c-11 3-22 9-30 17-9 9-15 20-15 32s5 23 13 31c15 17 42 23 63 15s36-29 35-51M358 262c-30-34-89-4-96 36-2 12 1 24 10 34 16 17 42 23 63 15s37-29 36-51c0-13-5-25-13-34" style="fill:#fff;fill-rule:nonzero"/><path d="M545 269c-34-12-48 47-10 52a27 27 0 0 0 11-52M324 274c-34-12-49 47-10 51 12 2 24-7 27-19 3-14-3-28-17-32" style="fill:#231f20;fill-rule:nonzero"/><path d="M328 288a6 6 0 0 0-2-2l-4-1a6 6 0 0 0-5 3l-1 3 2 3c1 1 4 2 6 1l3-2c1-1 2-4 1-5M548 282a6 6 0 0 0-2-2h-4a6 6 0 0 0-5 3v3l1 2c1 2 4 3 6 2h1l2-2c1-1 2-4 1-6" style="fill:#fff;fill-rule:nonzero"/><path d="M475 321a414 414 0 0 0-32-93c-5-11-20-26-31-9-3 5-3 12-5 18l-11 31-15 46c-5 14-7 30 0 44 5 13 18 20 31 25 12 5 26 8 39 5 13-4 23-15 26-28s1-27-2-39Zm-256-87c-4-7-9-14-17-18-7-5-15-6-24-5-17 3-25 22-21 38 3 9 9 17 15 24l3 2 2 2c3 2 8 2 10-1 10-12 20-23 31-32 3-3 3-8 1-10Zm471-59c0-7-3-14-10-17-12-6-26 1-36 8-12 7-22 17-29 28l-1 5c-1 3 0 6 4 9l17 13c3 2 5 4 9 5 5 1 9-1 12-4 11-9 21-18 28-29 4-5 7-12 6-18Z" style="fill:#f2a34c;fill-rule:nonzero"/><path d="M421 591c-6-23-9-46-7-69 0-3-2-5-5-5-4 0-5 2-6 5-2 24 0 49 8 71 2 7 12 4 10-2Zm34-48c-1-6-11-5-11 1l4 34c0 7 11 7 11 0 0-12-1-24-4-35Zm-230-32c-11 16-19 34-25 51-1 3 1 7 3 7 4 1 6-1 7-4 7-16 15-33 24-48 4-6-5-11-9-6Zm48 4-10 37c-1 6 9 9 11 2l10-36c2-7-9-9-11-3Zm-65-44c-20 17-36 41-47 66-1 2-1 5 2 7 2 1 6 1 7-2 12-24 27-45 46-64 5-5-2-12-8-7Zm453 55c-3-20-15-38-32-49-2-2-6 0-7 2-2 3-1 6 2 8 14 9 23 25 27 41 0 3 4 5 6 4 3-1 5-3 4-6Zm64-58a98 98 0 0 0-40-27c-3-1-6 1-7 4s1 5 4 6c13 6 25 14 35 25 5 5 12-3 8-8Zm-595-47c-1-3-5-3-7-2-23 10-44 23-63 40-2 1-2 5 0 7 3 3 6 2 8 0 19-14 39-27 60-37 3-2 4-5 2-8Zm-19-38c-25 6-49 13-73 22-3 1-5 3-4 7 1 2 4 4 7 3 24-8 48-15 73-21 7-2 4-12-3-11Zm650-14-26-7c-7-2-9 9-3 11l27 6c6 2 9-9 2-10Zm-632-57-39-3c-3-1-6 2-6 5s3 5 6 6l37 2c3 0 5-2 5-4 1-3-1-6-3-6Zm686-20c-32-4-64-1-95 8-7 2-4 12 2 10 31-8 62-10 93-7 3 0 6-3 6-6s-3-5-6-5Zm-46-38c-16 0-31 3-46 9-2 1-4 4-4 7 1 3 4 5 7 4 14-6 28-9 43-9 7-1 7-12 0-11ZM88 241l-23-2c-3 0-6 3-6 6s3 5 6 5l23 2c3 0 6-3 6-6s-3-5-6-5Zm683-72-23 9c-6 3-1 13 4 10l23-9c6-3 2-12-4-10Zm-492-2c-10-11-23-19-36-25-3-1-6 1-7 4-1 2 0 6 2 7 12 6 23 13 33 22 5 5 12-2 8-8ZM584 60c-3-1-6 1-7 4-9 25-21 50-34 74-3 6 6 12 10 5 14-24 25-49 35-76 1-3-1-6-4-7Zm-244 72c-11-21-26-41-43-58-6-5-13 2-8 7 16 17 30 36 42 57 3 6 12 1 9-6Zm142-57c0-3-2-6-5-6s-6 3-6 6c2 18 0 37-3 55 0 3 1 6 4 7s6-1 7-4c4-19 5-39 3-58Zm-84-11c-3-6-13-4-11 3 7 20 8 41 6 62-1 6 10 8 11 1 3-22 1-44-6-66Z" style="fill:#c86b2d;fill-rule:nonzero"/><path d="m427 390 1 3c1 7 1 13-3 19-3 5-8 8-13 11-13 7-32 9-43-2-3-2-5-6-7-9-2-4-1-7-2-12 0-5-7-6-9-1-2 4-1 10 1 14 1 5 3 9 6 12 7 8 16 12 26 13 19 3 41-6 50-23 5 7 12 11 20 14 18 6 43 6 56-9 7-7 11-19 7-29-1-2-3-4-7-4-2 1-4 4-3 7 2 6 1 12-3 18-5 6-12 8-19 10-8 1-16 0-24-1l-12-5c-4-3-8-6-9-10v-11l1-5 8-1c8-2 16-6 22-12 3-4 7-8 8-12v-7c0-8-6-10-14-12-15-3-100-13-83 22 2 5 7 8 11 10 10 5 22 10 34 12Z" style="fill:#231f20;fill-rule:nonzero"/></svg>
